# xmcd CD database file
#
# Track frame offsets:
#	150
#	21695
#	36255
#	55568
#	86598
#	99593
#	132163
#	142665
#	171113
#	198865
#
# Disc length: 3210 seconds
#
# Revision: 7
# Processed by: cddbd v1.5PL3 Copyright (c) Steve Scherf et al.
# Submitted via: CDex 1.50
#
DISCID=7e0c880a
DTITLE=Gary Moore - Back To The Blues
DYEAR=2001
DGENRE=Blues
TTITLE0=Enough Of The Blues
TTITLE1=You Upset Me Baby
TTITLE2=Cold Black Night
TTITLE3=Stormy Monday
TTITLE4=Ain't Got You
TTITLE5=Picture Of The Moon
TTITLE6=Looking Back
TTITLE7=The Prophet
TTITLE8=How Many Lies
TTITLE9=Drowing In Tears
EXTD=YEAR: 2001
EXTT0=
EXTT1=
EXTT2=
EXTT3=
EXTT4=
EXTT5=
EXTT6=
EXTT7=
EXTT8=
EXTT9=
PLAYORDER=
